<?xml version="1.0" encoding="UTF-8" standalone="no"?>
<!-- Created with Keyshape -->
<svg xmlns="http://www.w3.org/2000/svg" xmlns:xlink="http://www.w3.org/1999/xlink" shape-rendering="geometricPrecision" text-rendering="geometricPrecision" viewBox="0 0 328 328" style="white-space: pre;">
    <g transform="translate(165.59,165.742) translate(-158.59,-157.742)">
        <g transform="translate(152.167,203.776) rotate(135) translate(-41.75,-41.1485)">
            <path d="M-9,-9L-42,-42" stroke="#000000" fill="none" stroke-linecap="square" transform="translate(-9,42) rotate(90)"/>
            <path d="M0,0L0,35.297L-49.5,35.297" stroke="#000000" fill="none" stroke-linecap="square" transform="translate(83.5,47)"/>
        </g>
        <g id="_a0" opacity="1" transform="translate(97,201.203) translate(-7.5,-7.5)">
            <ellipse rx="7.5" ry="7.5" fill="#b037f2" stroke="none" transform="translate(7.5,7.5)"/>
            <ellipse rx="5" ry="5" fill="#fcbe0a" stroke="none" transform="translate(7.5,7.5)"/>
            <ellipse rx="2.5" ry="2.5" fill="#25abff" stroke="none" transform="translate(7.5,7.5)"/>
        </g>
        <path d="M-9,-9L-42,-42" stroke="#000000" fill="none" stroke-linecap="square" transform="translate(172.5,95) rotate(90)"/>
        <ellipse id="_a1" rx="4.5" ry="4.5" stroke="none" fill="#b037f2" opacity="0" transform="translate(181.5,86)"/>
        <g transform="translate(124.742,75.8125) rotate(270) translate(-41.75,-41.1485)">
            <path d="M-12.7348,-12.7348L-42,-42" stroke="#000000" fill="none" stroke-linecap="square" transform="translate(-9,42) rotate(90) translate(3.73482,3.73482)"/>
            <path d="M0,0L0,69L-49.5,69" stroke="#000000" fill="none" stroke-linecap="square" transform="translate(83.5,47) translate(0,-33.703)"/>
        </g>
        <g id="_a2" transform="translate(165.891,36.414) translate(-7.5,-7.5)">
            <ellipse rx="7.5" ry="7.5" fill="#b037f2" stroke="none" transform="translate(7.5,7.5)"/>
            <ellipse rx="5" ry="5" fill="#fcbe0a" stroke="none" transform="translate(7.5,7.5)"/>
            <ellipse rx="2.5" ry="2.5" fill="#25abff" stroke="none" transform="translate(7.5,7.5)"/>
        </g>
        <path d="M0,0L0,35.297L-49.5,35.297" stroke="#000000" fill="none" stroke-linecap="square" transform="translate(265,100)"/>
        <g id="_a3" opacity="1" transform="translate(255.941,135.297) translate(-7.5,-7.5)">
            <ellipse rx="7.5" ry="7.5" fill="#b037f2" stroke="none" transform="translate(7.5,7.5)"/>
            <ellipse rx="5" ry="5" fill="#fcbe0a" stroke="none" transform="translate(7.5,7.5)"/>
            <ellipse rx="2.5" ry="2.5" fill="#25abff" stroke="none" transform="translate(7.5,7.5)"/>
        </g>
        <ellipse id="_a4" rx="4.5" ry="4.5" stroke="none" fill="#25abff" opacity="0" transform="translate(121.094,122.063)"/>
        <ellipse id="_a5" rx="4.5" ry="4.5" stroke="none" fill="#2abaff" opacity="0" fill-opacity="1" transform="translate(92.3908,34.0625)"/>
        <ellipse id="_a6" rx="50" ry="50" fill="#2abaff" stroke="#32bffe" stroke-width="3" transform="translate(50,53.5625)"/>
        <ellipse id="_a7" rx="4.5" ry="4.5" stroke="none" fill="#fcbe0a" opacity="0" transform="translate(123.008,233.661)"/>
        <ellipse id="_a8" rx="4.5" ry="4.5" stroke="none" fill="#fcbe0a" opacity="0" transform="translate(187.451,173.802)"/>
        <ellipse id="_a9" rx="50" ry="50" fill="#000000" stroke="#000000" transform="translate(165,134)"/>
        <ellipse id="_a10" rx="50" ry="50" fill="#b037f2" stroke="#b64af3" stroke-width="3" transform="translate(265,50)"/>
        <ellipse id="_a11" rx="50" ry="50" fill="#fcbe0a" stroke="#facc5e" stroke-width="3" transform="translate(154.5,265.483)"/>
        <text fill="#ffffff" font-size="16" font-family="Arial" font-weight="400" stroke="none" text-anchor="middle" transform="translate(50,66.1094)" style="line-height: 14px;">DRIVER</text>
        <text fill="#ffffff" font-size="16" font-family="Arial" font-weight="400" stroke="none" text-anchor="middle" transform="translate(50,52.1094)" style="line-height: 14px;">BUTTON</text>
        <text fill="#ffffff" font-size="16" font-family="Arial" font-weight="400" stroke="none" text-anchor="middle" transform="translate(265,62.5469)" style="line-height: 14px;">DRIVER</text>
        <text fill="#ffffff" font-size="16" font-family="Arial" font-weight="400" stroke="none" text-anchor="middle" transform="translate(265,48.5469)" style="line-height: 14px;">NETWORK</text>
        <text fill="#000000" font-size="16" font-family="Arial" font-weight="400" stroke="none" text-anchor="middle" transform="translate(154.5,278.03)" style="line-height: 14px;">DRIVER</text>
        <text fill="#000000" font-size="16" font-family="Arial" font-weight="400" stroke="none" text-anchor="middle" transform="translate(154.5,264.03)" style="line-height: 14px;">DISK</text>
        <text id="_a12" fill="#000000" font-size="16" font-family="Arial" font-weight="400" stroke="none" opacity="0" display="none" transform="translate(125.422,139.547)" style="line-height: 16px;">REDUCED</text>
        <ellipse id="_a13" rx="4.5" ry="4.5" stroke="none" fill="#b037f2" opacity="0" fill-opacity="1" transform="translate(265,95.5) rotate(90)"/>
        <rect width="70" height="19.703" fill="#000000" stroke="none" transform="translate(282.18,135.297) translate(-35,-9.8515)"/>
        <text fill="#ffffff" font-size="12" font-family="Arial" font-weight="400" stroke="none" transform="translate(252.5,139.457)" style="line-height: 16px;">REDUCER</text>
        <g transform="translate(153,34.0625) translate(-35,-9.8515)">
            <rect width="70" height="19.703" fill="#000000" stroke="none" transform="translate(35,9.8515) translate(-35,-9.8515)"/>
            <text fill="#ffffff" font-size="12" font-family="Arial" font-weight="400" stroke="none" transform="translate(5.32,14.0115)" style="line-height: 16px;">REDUCER</text>
        </g>
        <rect width="70" height="19.703" fill="#000000" stroke="none" transform="translate(75,203.351) translate(-35,-9.8515)"/>
        <text fill="#ffffff" font-size="12" font-family="Arial" font-weight="400" stroke="none" transform="translate(45.32,207.511)" style="line-height: 16px;">REDUCER</text>
        <g id="_a14" opacity="0" transform="translate(165,134) translate(-32.9532,-24.9376)">
            <text fill="#fcbe0a" font-size="16" font-family="Arial" font-weight="400" stroke="none" opacity="1" transform="translate(0,46.4844)" style="line-height: 16px;">.adding(x)</text>
            <text fill="#25abff" font-size="16" font-family="Arial" font-weight="400" stroke="none" opacity="1" transform="translate(0.000125,30.4845)" style="line-height: 16px;">.disabled,</text>
            <text fill="#b037f2" font-size="16" font-family="Arial" font-weight="400" stroke="none" opacity="1" transform="translate(0.000125,14.4845)" style="line-height: 16px;">.idle,</text>
        </g>
        <g id="_a15" opacity="0" transform="translate(165,134) translate(-32.9532,-24.9376)">
            <text fill="#fcbe0a" font-size="16" font-family="Arial" font-weight="400" stroke="none" opacity="1" transform="translate(0,46.4844)" style="line-height: 16px;">.idle</text>
            <text fill="#25abff" font-size="16" font-family="Arial" font-weight="400" stroke="none" opacity="1" transform="translate(0.000125,30.4845)" style="line-height: 16px;">.disabled,</text>
            <text fill="#b037f2" font-size="16" font-family="Arial" font-weight="400" stroke="none" opacity="1" transform="translate(0.000125,14.4845)" style="line-height: 16px;">.running,</text>
        </g>
        <g id="_a16" opacity="0" transform="translate(165,134) translate(-32.9532,-24.9376)">
            <text fill="#fcbe0a" font-size="16" font-family="Arial" font-weight="400" stroke="none" opacity="1" transform="translate(0,46.4844)" style="line-height: 16px;">.idle</text>
            <text fill="#25abff" font-size="16" font-family="Arial" font-weight="400" stroke="none" opacity="1" transform="translate(0.000125,30.4845)" style="line-height: 16px;">.disabled,</text>
            <text fill="#b037f2" font-size="16" font-family="Arial" font-weight="400" stroke="none" opacity="1" transform="translate(0.000125,14.4845)" style="line-height: 16px;">.queued,</text>
        </g>
        <g id="_a17" opacity="1" transform="translate(165,134) translate(-32.9532,-24.9376)">
            <text fill="#fcbe0a" font-size="16" font-family="Arial" font-weight="400" stroke="none" opacity="1" transform="translate(0,46.4844)" style="line-height: 16px;">.idle</text>
            <text fill="#25abff" font-size="16" font-family="Arial" font-weight="400" stroke="none" opacity="1" transform="translate(0.000125,30.4845)" style="line-height: 16px;">.enabled,</text>
            <text fill="#b037f2" font-size="16" font-family="Arial" font-weight="400" stroke="none" opacity="1" transform="translate(0.000125,14.4845)" style="line-height: 16px;">.idle,</text>
        </g>
    </g>
</svg>
